<!--?xml version="1.0" encoding="utf-8"?-->
<!-- Generator: Adobe Illustrator 22.1.0, SVG Export Plug-In . SVG Version: 6.00 Build 0)  -->
<svg version="1.1" id="_x34_" xmlns="http://www.w3.org/2000/svg" xmlns:xlink="http://www.w3.org/1999/xlink" x="0px" y="0px" viewBox="0 0 800 219.1" style="enable-background:new 0 0 800 219.1;" xml:space="preserve">
<style type="text/css">
	.st0{fill:#00BFA7;}
	.st1{fill:#FFBB3F;}
	.st2{fill:#FFFFFF;}
</style>
<g>
	<path class="st0" d="M400,186.9L28,217.8v-67.3c-14.8-8.7-23.9-24.5-23.9-41.9c0-17.4,9.1-33.2,23.9-41.9V1.3l372,30.9L772,1.3
		v65.4c14.8,8.7,23.9,24.5,23.9,41.9c0,17.4-9.1,33.2-23.9,41.9v67.3L400,186.9z"></path>
	<path class="st1" d="M400,186.9l0-0.2L28.2,217.6v-67.3l-0.1,0c-14.8-8.7-23.8-24.5-23.8-41.8c0-17.3,9-33.1,23.8-41.8l0.1,0V1.5
		L400,32.3L771.8,1.5v65.3l0.1,0c14.8,8.7,23.8,24.5,23.8,41.8c0,17.3-9,33.1-23.8,41.8l-0.1,0v67.3L400,186.8l0,0L400,186.9l0,0.2
		L772.1,218v-67.5H772l0.1,0.1c14.8-8.8,24-24.6,24-42.1s-9.1-33.3-24-42.1l-0.1,0.1h0.2V1.1L400,32L27.9,1.1v65.5H28L28,66.5
		C13.1,75.3,4,91.1,4,108.6c0,17.4,9.1,33.3,24,42.1l0.1-0.1h-0.2V218L400,187.1L400,186.9l0,0.2L400,186.9z"></path>
	<path d="M400,181.9L33,212.4v-64.9c-14.6-7.4-23.9-22.4-23.9-39S18.4,77,33,69.6V6.7l367,30.5L767,6.7v62.9
		c14.6,7.4,23.9,22.4,23.9,39s-9.3,31.6-23.9,39v64.9L400,181.9z"></path>
	<path class="st2" d="M779.1,89c-3.5-5.8-8.6-10.6-14.9-13.8l-3.4-1.8V13.5L400,43.5l-360.7-30v59.9l-3.4,1.8
		c-6.3,3.2-11.4,8-14.9,13.8c-3.5,5.8-5.5,12.5-5.5,19.6c0,7.1,2,13.8,5.5,19.6c3.5,5.8,8.6,10.6,14.9,13.8l3.4,1.8v61.9l360.7-30
		l360.7,30v-61.9l3.4-1.8c6.3-3.2,11.4-8,14.9-13.8c3.5-5.8,5.5-12.5,5.5-19.6C784.6,101.5,782.6,94.7,779.1,89z M776.2,126.4
		c-3.2,5.3-7.9,9.6-13.6,12.6l-5.3,2.7V202L400,172.3L42.6,202v-60.3l-0.9-0.5l-4.3-2.2c-5.7-2.9-10.4-7.3-13.6-12.6
		c-3.2-5.3-5-11.4-5-17.9c0-6.5,1.8-12.6,5-17.9s7.9-9.6,13.6-12.6l5.3-2.7V17.1L400,46.8l357.4-29.7v58.3l5.3,2.7
		c5.7,2.9,10.4,7.3,13.6,12.6c3.2,5.3,5,11.4,5,17.9C781.2,115,779.5,121.2,776.2,126.4z"></path>
	<path class="st2" d="M49.7,109.6c0,2.4-1.9,4.4-4.4,4.4c-2.4,0-4.4-1.9-4.4-4.4c0-2.4,1.9-4.4,4.4-4.4
		C47.8,105.2,49.7,107.1,49.7,109.6z"></path>
	<path class="st2" d="M756.3,109.6c0,2.4-1.9,4.4-4.4,4.4c-2.4,0-4.4-1.9-4.4-4.4c0-2.4,1.9-4.4,4.4-4.4
		C754.3,105.2,756.3,107.1,756.3,109.6z"></path>
</g>
</svg>
